<svg width="43" height="20" viewBox="0 0 43 20" fill="none" xmlns="http://www.w3.org/2000/svg">
<path d="M5.71875 5.46875V6.39453H2.02734V11.5156C3.78516 11.5098 4.99805 11.4453 6.375 11.1758L6.50391 12.0898C4.99219 12.3711 3.71484 12.4414 1.73438 12.4414H0.902344V5.46875H5.71875ZM9.15234 4.49609V15.0195H8.03906V9.17188H5.12109V8.24609H8.03906V4.49609H9.15234ZM20.3672 12.7695V13.6953H10.7578V12.7695H14.9883V10.6133H11.8594V5.21094H12.9727V7.01562H18.1289V5.21094H19.2305V10.6133H16.0898V12.7695H20.3672ZM12.9727 9.71094H18.1289V7.91797H12.9727V9.71094ZM29.8594 4.49609V14.9961H28.7344V4.49609H29.8594ZM26.7305 5.62109C26.7305 8.69141 25.418 11.3633 21.8203 13.0859L21.2344 12.1836C24.0293 10.8535 25.3887 8.96094 25.6055 6.51172H21.7383V5.62109H26.7305Z" fill="#66696F"/>
<path d="M38 6L42 10L38 14" stroke="#66696F" stroke-linecap="round" stroke-linejoin="round"/>
</svg>
